
<global>
amp_veltrack=0
ampeg_attack=0.0000
ampeg_release=0.45
</global>

<group>
group_label=PP
lpc_hicc1=42
lpc_locc1=0

<region>
hivel=127
key=G4
loop_end=187770
loop_mode=loop_continuous
loop_start=49116
loop_xfade=19204
lovel=0
lpc=5UaFQ2x7M8RuwBFEVaaswgFdEkL1kxLDeLCDQuLdBMEdFhVCtAPEwcY0AMIQRc5BDjWDQNAqpD8MoSRAvC8IwR5Lz0D79xDB9f8AvBvwP0ECwZDANsm0QeS6XMIi2vpB
lpc_rms=-45.26
offset=819
release_start=203667
release_xfade=9000
sample=Trombone_sustain_PP_G3.opus
tune=-29
</region>

<region>
hivel=127
key=G3
loop_end=193390
loop_mode=loop_continuous
loop_start=50586
loop_xfade=19778
lovel=0
lpc=/VBVQ6oBBsQs3KxD8QMhQT/WbEKh0LbCWQtMwQTaTcH1CItBjncgQW/dmEBTRMPAG4w7QHbadcCKcC+9KhTpwKT0XEAiNx5Agrvpv0jsK0GX+L8/7pIWwLg5rsE7G3BB
lpc_rms=-49.24
offset=336
release_start=205596
release_xfade=9000
sample=Trombone_sustain_PP_G2.opus
tune=-3
</region>

<region>
hivel=127
key=G2
loop_end=192663
loop_mode=loop_continuous
loop_start=50395
loop_xfade=19704
lovel=0
lpc=IMkOQ6dbm8OJdQ5Dv2mTQRPedEI24AfCjAMqwXMtq8HzkgtAhrs0QTD4OL8CJIe/ORYwP5hUKMAzPkRAoeyCv4lZkj6jMI4/2XImwJnpNUBTzZg/G1amvX1RAsEfublA
lpc_rms=-54.71
offset=3662
release_start=198520
release_xfade=9000
sample=Trombone_sustain_PP_G1.opus
tune=-13
</region>

<region>
hivel=127
key=G#4
loop_end=181843
loop_mode=loop_continuous
loop_start=47565
loop_xfade=18597
lovel=0
lpc=aDGeQ0EiZ8QEslhExktVw5wQv0GEwRPD9dnfQnFWU8KLJtVBEiOFwTlkq7+2FQZCAn3DwTy0rD6Ue9u+dMwLQcB41sBVBv+/AjwEQUYvWME9h2JBmqvVQZVsg8KL9QlC
lpc_rms=-42.70
offset=920
release_start=201582
release_xfade=9000
sample=Trombone_sustain_PP_G#3.opus
tune=-32
</region>

<region>
hivel=127
key=G#3
loop_end=198907
loop_mode=loop_continuous
loop_start=52029
loop_xfade=20343
lovel=0
lpc=ABxgQ2YrD8RwZ8hDqmjJwVNBkEJhvv3CJK5WQbN4pb+I2rpBMLnVQI2cWcGGyA7BkEdqv/iXPkFKtjY/wokJwN0OcT94XJi/6rrUwOLJK0HIqZm/lnVkv/d0KsHeVv5A
lpc_rms=-47.89
offset=1434
release_start=205692
release_xfade=9000
sample=Trombone_sustain_PP_G#2.opus
tune=+6
</region>

<region>
hivel=127
key=G#2
loop_end=203267
loop_mode=loop_continuous
loop_start=53169
loop_xfade=20789
lovel=0
lpc=olnoQluzcMNiXb5CuxCFQRz3RkI6xX3BFKr+wIG6dsHRIYjAJhD5P8U41T/hAkdAQDW2P4c0G8DSCPU+I/wgv+vbmT8fVb0+4cpUv/QCqT9+07i+gOiOvxlyvj6e/Rs+
lpc_rms=-57.10
offset=6759
release_start=204147
release_xfade=9000
sample=Trombone_sustain_PP_G#1.opus
tune=-13
</region>

<region>
hivel=127
key=F4
loop_end=191177
loop_mode=loop_continuous
loop_start=50007
loop_xfade=19552
lovel=0
lpc=VpSmQ/9IZcRYtjVEAVlawvEpyEFNMSDDISWMQck2EUHlXNFB81GvvkqrNMEBDopBDmDQQEqassFS5yXBMyr1QJVrrEH6V4nBJbAWwVosVEF/ST1BDmLeQWmXosIAVSdC
lpc_rms=-44.22
offset=444
release_start=202560
release_xfade=9000
sample=Trombone_sustain_PP_F3.opus
tune=-30
</region>

<region>
hivel=127
key=F3
loop_end=188968
loop_mode=loop_continuous
loop_start=49429
loop_xfade=19326
lovel=0
lpc=0+Q5Q8/D4sMvnYVDICr2QYRDQ0LZV5HC0qCGwUFgHcEWgptBr7pPQeIQxsBzTVLBwNYYwL+CXr82LhRBckmrQLnMhkA/3Mu/SouZwMC+Qb/CR9C/xHjnwLir7kCZb8g+
lpc_rms=-51.30
offset=1529
release_start=201695
release_xfade=9000
sample=Trombone_sustain_PP_F2.opus
tune=-26
</region>

<region>
hivel=127
key=F2
loop_end=189507
loop_mode=loop_continuous
loop_start=49570
loop_xfade=19381
lovel=0
lpc=9xQMQ6apmMPO3gJDcg/qQTX6b0IDqLPBUIaGwSv6xcEjk5vA9EJGQB9Rw0CDiyhA/12AQBHN7D/JEjc/bgX5vf3LMcA+4SrAa/uov3bQrTsUfyxA0x0YQEHxCcAkgN69
lpc_rms=-55.18
offset=2325
release_start=202035
release_xfade=9000
sample=Trombone_sustain_PP_F1.opus
tune=-12
</region>

<region>
hivel=127
key=F#4
loop_end=190748
loop_mode=loop_continuous
loop_start=49894
loop_xfade=19508
lovel=0
lpc=5Qi2QyLRfcTRCVNE+4XfwtQqS0KAA1LDkGQzQkcJl0AZN4NC39HTwcJlIMEHt4fAtVDEwNiPh0H2oxrBRDBvQEGnqkBnSEbBMSrXPyKl3EDKTIhBD8sCQU8XhcIXVSJC
lpc_rms=-42.51
offset=1200
release_start=193380
release_xfade=9000
sample=Trombone_sustain_PP_F#3.opus
tune=-16
</region>

<region>
hivel=127
key=F#3
loop_end=189420
loop_mode=loop_continuous
loop_start=49547
loop_xfade=19372
lovel=0
lpc=lm9TQybw8MNjQndDltDtQXT6mUKIpHLCQw+qwSjfssFneu5AdC19QQgQq0AM5fu/WWJYwDfzi8BYa36/O6FewABeFb/p3ZxAeIaDQJ/H8UDOOeE/5E5GwG4T1MG+35NB
lpc_rms=-50.93
offset=568
release_start=202857
release_xfade=9000
sample=Trombone_sustain_PP_F#2.opus
tune=+7
</region>

<region>
hivel=127
key=F#2
loop_end=192835
loop_mode=loop_continuous
loop_start=50440
loop_xfade=19722
lovel=0
lpc=ffP8QlYMhMM9b99CUitWQRd7TELBiJHBPCoHwX4FnMGa9/Y/QTp6QKPYwD++t6S+RSzaPrc5D8AWehVAOWlzQIrQeD/wXn7A03pJwPRJ176GghdApG77P6IMCMA2ZmY/
lpc_rms=-56.18
offset=374
release_start=196678
release_xfade=9000
sample=Trombone_sustain_PP_F#1.opus
tune=-6
</region>

<region>
hivel=127
key=E4
loop_end=194197
loop_mode=loop_continuous
loop_start=50797
loop_xfade=19861
lovel=0
lpc=4tVoQwvLHcQXdf1DlGGJwsV37UE8NtrCHWUUQu23EcHWpM5BJ4YeweWtWcH/i8JAHwqBQOwmS0BjDK/ApwMAQaDR8D+McVPBCW0twb48gkEvqwxBYDcZQVX9E8IoJJZB
lpc_rms=-46.16
offset=446
release_start=202103
release_xfade=9000
sample=Trombone_sustain_PP_E3.opus
tune=-14
</region>

<region>
hivel=127
key=E3
loop_end=202440
loop_mode=loop_continuous
loop_start=52953
loop_xfade=20704
lovel=0
lpc=fgzMQhE9V8Ml17xC8sI7QZUDJ0K/JZjBjKMawREDVsFKwc0/S/iQQLQFBkBofV+9XKWGP+AeM8CQBgJAf+o/Pu4jez/I0um/Y2Fyv/0cAsAqjBlAjaNsP0eg5D/4jQnA
lpc_rms=-58.03
offset=6127
release_start=216583
release_xfade=9000
sample=Trombone_sustain_PP_E2.opus
tune=-16
</region>

<region>
hikey=E2
hivel=127
lokey=C1
loop_end=194834
loop_mode=loop_continuous
loop_start=53169
loop_xfade=20789
lovel=0
lpc=MFWsQjCFLcMRj4JCSjbUQJVIHkKt5pDAyVagwFFrbMH2MoPAWkcLwO3/lT+X+UlAleFjQHLnvD97g6M+qrIiwGhpFcDKSaQ/U2YPP1Q7nj+ek7S/+2ulP2yFzr9xcRo/
lpc_rms=-59.88
offset=12630
pitch_keycenter=E2
release_start=201320
release_xfade=9000
sample=Trombone_sustain_PP_E1.opus
tune=-3
</region>

<region>
hivel=127
key=D4
loop_end=186423
loop_mode=loop_continuous
loop_start=48763
loop_xfade=19066
lovel=0
lpc=wgSqQ8QLYcQtvCVELkQ5wkuvk0IqPBnDEdJ0Qd07EMLELExCLccUQbd3usG6NclAHQ9LwRmiq0GXybm/6EqdwLekh8DO6S7BtwZWQQF16UAiyI5AruQVPznnA8LLPalB
lpc_rms=-44.13
offset=21
release_start=200095
release_xfade=9000
sample=Trombone_sustain_PP_D3.opus
tune=-12
</region>

<region>
hivel=127
key=D3
loop_end=201067
loop_mode=loop_continuous
loop_start=52594
loop_xfade=20563
lovel=0
lpc=HGc4Q4jMzMOccj9DeLvmQc45kELBKwrCO/N8wZnaysEp4gG+k5/jP2XqMkDICoK/vr6jP0oSPkC2pUtAepAhwLjAtkCe8sm/jU8LwHV/7b4hcYu/oCdRwEEAJT9v7DNA
lpc_rms=-52.50
offset=2043
release_start=211473
release_xfade=9000
sample=Trombone_sustain_PP_D2.opus
tune=-16
</region>

<region>
hivel=127
key=D#4
loop_end=184916
loop_mode=loop_continuous
loop_start=48369
loop_xfade=18912
lovel=0
lpc=PY6DQ+8wNsSGRRVEfsGewrSPIkKK///Cotj8QQ5iMsGHSpJBt3CewX1D+8AYmORBXLqPQe0R+EDhLJLB7wrHwYLt/b8e6YnA3rinQWNWikFMV57A6JmfwXoil0DlcBlA
lpc_rms=-45.62
offset=879
release_start=198758
release_xfade=9000
sample=Trombone_sustain_PP_D#3.opus
tune=-30
</region>

<region>
hivel=127
key=D#3
loop_end=189384
loop_mode=loop_continuous
loop_start=49538
loop_xfade=19369
lovel=0
lpc=vjNBQ8W978PkgJdDRh5sQU/LLkLTaprCWKYpwbvtw7+oBZxBLpR6QD/27MAXI7LALKFbwGqVYL9YAtBAQjDWQNli0j8Fj+S/n/qQwKmE570QYi/Al0tDwPxcGEGnmGzA
lpc_rms=-50.54
offset=2584
release_start=201541
release_xfade=9000
sample=Trombone_sustain_PP_D#2.opus
tune=-10
</region>

<region>
hikey=D#5
hivel=127
lokey=C5
loop_end=183385
loop_mode=loop_continuous
loop_start=47968
loop_xfade=18755
lovel=0
lpc=f8mpQyaueMReXXlETISxw5dtHEMjHJnDIOpqQ8U7C8MZ4AxDpvK/wroeo0GEgRZCSzemwo99u0LATSvCifEpwOs0iEHrRpbBdbq2wHFerL/QU+tAvh7lQrmbPsOL8q1C
lpc_rms=-39.56
offset=590
pitch_keycenter=C5
release_start=200395
release_xfade=9000
sample=Trombone_sustain_PP_C4.opus
tune=-31
</region>

<region>
hikey=C4
hivel=127
lokey=C4
loop_end=195168
loop_mode=loop_continuous
loop_start=51051
loop_xfade=19960
lovel=0
lpc=HVMxQ5Hg78Mh/b5DX3k5wiIFhkHX65bC8wm7QZSG+r/emZVA8GI2vzxALr+0IYxA8q6DwCV5ucD9KytBP6VJv4xm9j+3KxrBMVghwL/o/kB3sJZAAEegwAgWXcBNCjtA
lpc_rms=-49.58
release_start=206956
release_xfade=9000
sample=Trombone_sustain_PP_C3.opus
tune=-17
</region>

<region>
hivel=127
key=C3
loop_end=203267
loop_mode=loop_continuous
loop_start=53169
loop_xfade=20789
lovel=0
lpc=UV0OQ+SEmsOHMQlDhlDDQZBfYEKK18DBIXqJwTI4mMEXmAm/FteGQK34uEA42hc/mTkxP8bLGb9DpZO/bcf/OzO4wj1Byuk8Eh/Evp4E5j81hAk+3jSnvlzzI8Bgwuc/
lpc_rms=-55.05
offset=9211
release_start=209529
release_xfade=9000
sample=Trombone_sustain_PP_C2.opus
tune=+8
</region>

<region>
hivel=127
key=C#4
loop_end=194322
loop_mode=loop_continuous
loop_start=50830
loop_xfade=19874
lovel=0
lpc=SJ5jQ1UdDsTUfbND+5zKQctzVUIpx8jCuI4RwblXbME2ZtRBzgQuQc9F28CDVwBAfr4UwamFRMBGbue/mkb7QCMM3kBZ6VJA/TX1wMtKLL+/OYo/YVaYPk/UDcGLpexA
lpc_rms=-48.98
release_start=218489
release_xfade=9000
sample=Trombone_sustain_PP_C#3.opus
tune=-11
</region>

<region>
hivel=127
key=C#3
loop_end=190165
loop_mode=loop_continuous
loop_start=49742
loop_xfade=19449
lovel=0
lpc=YhYjQzMos8MDXClDVVKfQYywZ0JmUPnB31QCwZgNYsFBKYg/u5bYPw1MnMA2cnzADv9NPsenqUBERkVAxGJsv1nOOEDTfYfAfIE2QOGXtkBEZTnA7lMMv+2BhMH5209B
lpc_rms=-53.57
offset=992
release_start=194965
release_xfade=9000
sample=Trombone_sustain_PP_C#2.opus
tune=+7
</region>

<region>
hivel=127
key=B4
loop_end=192994
loop_mode=loop_continuous
loop_start=50482
loop_xfade=19738
lovel=0
lpc=0H2lQyPxesTax4ZEitbew3nbCkOP94PD33KPQygcUsP1lTRDHm4Vw/yll0LwOOm/KM2VwrV8BUNjb6vC0fC/QRcrL8E7TkPBrxh1QVxppcENKCZBbxW9QqleEcPPGXpC
lpc_rms=-38.68
offset=207
release_start=207501
release_xfade=9000
sample=Trombone_sustain_PP_B3.opus
tune=-22
</region>

<region>
hivel=127
key=B3
loop_end=191992
loop_mode=loop_continuous
loop_start=50220
loop_xfade=19635
lovel=0
lpc=tDyGQyxGLMQRwuBDMPTUQZW/hkIF6PTCMwyRwbL5lMFIYgxCv5RkQdEP2sAb7i/BbTaxwMVx7kD/9IFAAdFmPxElCsBlzgw/vNyLwIaNd0EJn1TAusgqwEa6rsEAXIZB
lpc_rms=-47.15
offset=171
release_start=201400
release_xfade=9000
sample=Trombone_sustain_PP_B2.opus
tune=+2
</region>

<region>
hivel=127
key=B2
loop_end=189765
loop_mode=loop_continuous
loop_start=49637
loop_xfade=19408
lovel=0
lpc=O3IEQ/FKhsPdM8lCpdlRQeDiY0IutdPAi5umwHGoi8EEpcnAtz+9wIV5L8Dfp78/PNKUQCe6WECYgHBAAmkrP6Yfhz/ecD7AL9SEv2DYw78djkvAj+G7P7srh0Cmze+/
lpc_rms=-56.22
offset=6975
release_start=188381
release_xfade=9000
sample=Trombone_sustain_PP_B1.opus
tune=-11
</region>

<region>
hivel=127
key=A4
loop_end=182511
loop_mode=loop_continuous
loop_start=47740
loop_xfade=18666
lovel=0
lpc=cHzFQ1wNi8TvVoFE+jGbwxJ0tUIQz2TD/0h7Q0QmI8OW2J5CPj3Nwk2t0kF39KJCPDh2QR04CsLVsJjCJ1BsQhzjbsCtCt1B6SIMwgPSr8GyKo1CDMOZwdplYsJsjhtC
lpc_rms=-39.65
offset=702
release_start=203877
release_xfade=9000
sample=Trombone_sustain_PP_A3.opus
tune=-21
</region>

<region>
hivel=127
key=A3
loop_end=191407
loop_mode=loop_continuous
loop_start=50067
loop_xfade=19576
lovel=0
lpc=y+s2Q2Ak38OEqIlDX2UpQU5xSELWNpTC3S8JwUy5X8CqB4BBXNs7QSA4DMGfRG7BsvkuvwU8mL6SrjNB3Po9QLmRpkByM4s/YUUYwZKpTMA7GF6/la7rPnEhrECOA+6/
lpc_rms=-51.05
release_start=203740
release_xfade=9000
sample=Trombone_sustain_PP_A2.opus
tune=+3
</region>

<region>
hivel=127
key=A2
loop_end=193920
loop_mode=loop_continuous
loop_start=50724
loop_xfade=19833
lovel=0
lpc=0ZAYQ4lXnsNrQ/tCJGC5QSaeckL16ajBCC0HwacPjMHA4sO/+wxlQGcEnL/yDALA6pLmvXKdGsCydRNAJKADQLndg0ALI+68n2sFv/SUZEDlszHAuXsWwJKKIsGgHhlB
lpc_rms=-54.80
offset=721
release_start=203100
release_xfade=9000
sample=Trombone_sustain_PP_A1.opus
tune=-17
</region>

<region>
hivel=127
key=A#4
loop_end=181383
loop_mode=loop_continuous
loop_start=47445
loop_xfade=18550
lovel=0
lpc=9NeOQ5fKScTvijpEyY9Fw+fYSkLnqDfDw3AlQ11s2sJp6+pCmWHCwqTkmUAxIW1C7qKEwiDhk0JixGrCMKTNQaT6EEFBzSnC69ojQkEK78GsMf9BSyP8QMqoVsLjcf9B
lpc_rms=-42.14
offset=245
release_start=204710
release_xfade=9000
sample=Trombone_sustain_PP_A#3.opus
tune=-22
</region>

<region>
hivel=127
key=A#3
loop_end=188436
loop_mode=loop_continuous
loop_start=49290
loop_xfade=19272
lovel=0
lpc=3aGfQ/QNXsQ9+ipEf4D0wHsJ30GedDLD82UIQOz2Lz81AF1CxzRqQD+ou8Fu7wLBAJUTQap4m0CHPPdA2IEgwAAOj0Ap107B0WEGwVBgiUBPPzNBvx3QQAf0msHj9AdB
lpc_rms=-44.55
offset=791
release_start=211959
release_xfade=9000
sample=Trombone_sustain_PP_A#2.opus
tune=-1
</region>

<region>
hivel=127
key=A#2
loop_end=191127
loop_mode=loop_continuous
loop_start=49994
loop_xfade=19547
lovel=0
lpc=aSwdQ7CIqsOmkRRDO9HCQQs1hUKOY9/Bkl2cwIpau8HQH4DA30t/PunhocARr5O/MiiLQDaUQUBsGANBVnZXwOcSpkD4aYTAgh5gwADEwUDfzsm/2kgYwL7BNcGkOylB
lpc_rms=-54.09
offset=2636
release_start=201412
release_xfade=9000
sample=Trombone_sustain_PP_A#1.opus
tune=-17
</region>
</group>

<group>
group_label=MF
lpc_hicc1=84
lpc_locc1=43

<region>
hivel=127
key=G4
loop_end=183939
loop_mode=loop_continuous
loop_start=48114
loop_xfade=18812
lovel=0
lpc=ZuVDQ8WaQsTK0JtED1J3xBUEyUNiIyvDnnFRQ2g/IsMhS0BCj2T+QfCZ+sJvs2RD0Mh6w9ZlMEPkwJfCAGCmv43PMEJcRz/C7WPKQfMzWsCKdRfBqyKpQbpet8FTaxVB
lpc_rms=-33.50
offset=24
release_start=192252
release_xfade=9000
sample=Trombone_sustain_MF_G3.opus
tune=-19
</region>

<region>
hivel=127
key=G3
loop_end=187963
loop_mode=loop_continuous
loop_start=49166
loop_xfade=19223
lovel=0
lpc=PxJcQ/AwPMScVXBEx6INxJSjWkMv9DXDcpVCQ01SHcOMCLZC/zogwkY408DtzplCRe/EwpBQMkJe98ZAAekfwfbbBkDAFgY/qhqtwAvNI8ETes1BUwyWwDIIWsHGq89A
lpc_rms=-38.49
offset=23
release_start=203940
release_xfade=9000
sample=Trombone_sustain_MF_G2.opus
tune=-17
</region>

<region>
hivel=127
key=G2
loop_end=190235
loop_mode=loop_continuous
loop_start=49760
loop_xfade=19456
lovel=0
lpc=CrpZQ6H8IcRkkBdE3JgXwzhxgkLCWP/CEjDaQD5nBkCewj1CVo9DvtDb9MEMO1q/fljlQXnAQsBkL4TBR46WwK/5n0HTIJ7BbDknQenNVcC0Ot+/Kv6UQWgRv8EIHxBB
lpc_rms=-45.54
offset=956
release_start=202263
release_xfade=9000
sample=Trombone_sustain_MF_G1.opus
</region>

<region>
hivel=127
key=G#4
loop_end=187430
loop_mode=loop_continuous
loop_start=49027
loop_xfade=19169
lovel=0
lpc=ZZoOQ6/7B8SJ/U1EN/YZxC4miEM65SzD4QUfQ9Gkx8JT4rNC7JG7wpV/pEGs/oZCm3HCwn9JsELdWWHCOIQaQaKKZ0EKZPbApGk4QJSNWcETN8ZByuKtwfq+GEHDHtO/
lpc_rms=-37.56
offset=280
release_start=199543
release_xfade=9000
sample=Trombone_sustain_MF_G#3.opus
tune=-23
</region>

<region>
hivel=127
key=G#3
loop_end=189126
loop_mode=loop_continuous
loop_start=49470
loop_xfade=19342
lovel=0
lpc=g0UGQ6Zg7cPyhiFE6UXWw1//S0NgkyzDucUMQ0dHhcIh1J1BT0YlQai5lsGy7k1BIASSwTBX/0AoH5ZB5DMYwh9DUEKJsx3CKT6MP0n51UGnBBnC2OoMQpThlcHxr45A
lpc_rms=-40.86
offset=452
release_start=195291
release_xfade=9000
sample=Trombone_sustain_MF_G#2.opus
tune=-23
</region>

<region>
hivel=127
key=G#2
loop_end=196167
loop_mode=loop_continuous
loop_start=51312
loop_xfade=20062
lovel=0
lpc=31RVQ5BtIcStXxlEVVAEwz4qg0FjtfLC7dwmQp+tdr+EiP1BmfiNwccilr+yEBU/v7Q+QVEXKcGP+dg/mmH9wDArj0FcLEzBVnRKwH9uB0BvKgFB0nn6v1AKxsCoYU5A
lpc_rms=-45.60
offset=819
release_start=206300
release_xfade=9000
sample=Trombone_sustain_MF_G#1.opus
tune=-32
</region>

<region>
hivel=127
key=F4
loop_end=180560
loop_mode=loop_continuous
loop_start=47230
loop_xfade=18466
lovel=0
lpc=KYH7QhuA/cO8fldEEK9IxALp8UPzOpjDnC2aQ/zOlsMRmVpDQXECwyi2m0KFbB7CiBLCv5adGkKhbS/CKnOHwMe2UUIAt3XA3nvtwl4hLEMLueDC3UYWQhQ3AMGk5Pg/
lpc_rms=-32.47
offset=543
release_start=189818
release_xfade=9000
sample=Trombone_sustain_MF_F3.opus
tune=-15
</region>

<region>
hivel=127
key=F3
loop_end=187730
loop_mode=loop_continuous
loop_start=49105
loop_xfade=19200
lovel=0
lpc=JnUnQwvsE8SWrk5EeNkTxMh5jEPesTTDNG4kQ2PY+MIBLqxCxxJ5wuDvgEDFPndCby4vwlSSVMF2JHtBjD2kP7Y4iEHfvQzCpMOTQSKUF0HXs5fB84STQQERisGyluxA
lpc_rms=-40.32
offset=325
release_start=202356
release_xfade=9000
sample=Trombone_sustain_MF_F2.opus
tune=-30
</region>

<region>
hivel=127
key=F2
loop_end=188174
loop_mode=loop_continuous
loop_start=49221
loop_xfade=19245
lovel=0
lpc=jRk/Q4DoFMRSRh5EPLFowz5VBEJSLJjCyGWMQjJtssGzJTrBDfNUQEW0RkHS+irBNmezQbaUqcHnnzRB9iycwVhCk0GC/Bg/QiEcwasilb/ccwBBg9e5QC7VgsEgovlA
lpc_rms=-44.85
offset=1182
release_start=195436
release_xfade=9000
sample=Trombone_sustain_MF_F1.opus
tune=-4
</region>

<region>
hivel=127
key=F#4
loop_end=185095
loop_mode=loop_continuous
loop_start=48416
loop_xfade=18930
lovel=0
lpc=XNwWQ+AhI8SjL51EnzSyxAlQhURgpw/EPeuBQ/nZCcMkfuVCZafuwrTe0kKTTEbCqEGZwGNJCMGlfn1CInC3wnil1UJduAjDjmD/QiydEsInU33CSsemQotWK8KFSgtB
lpc_rms=-32.33
offset=2071
release_start=193355
release_xfade=9000
sample=Trombone_sustain_MF_F#3.opus
tune=-14
</region>

<region>
hivel=127
key=F#3
loop_end=190645
loop_mode=loop_continuous
loop_start=49868
loop_xfade=19498
lovel=0
lpc=UnsyQxiiHsQ5K1VEhGQExFBKUUMrCzLDR/gcQyFum8KKXB1C8e4/wYUI5cHYnB5Cmlc9wR7nYsCZeCLBPKRRQHhyoEE6nUfBUWtGwEw3iUAucOzBB0aMQoMlesL2Sp5B
lpc_rms=-40.86
offset=1577
release_start=201433
release_xfade=9000
sample=Trombone_sustain_MF_F#2.opus
tune=-12
</region>

<region>
hivel=127
key=F#2
loop_end=194961
loop_mode=loop_continuous
loop_start=50996
loop_xfade=19939
lovel=0
lpc=ZO9CQ72BE8RcYhJE/6Mvw9skKkLo2PbC6peLQqWPDEAwZCPAMYwRwSPjO0DGjA1AykEiQTB7t8AX+SrBlowRQYVGmMCUIltASAzKQAlMgsHe/UZBlLR/wNPj3D/cxEu/
lpc_rms=-45.61
offset=66
release_start=205587
release_xfade=9000
sample=Trombone_sustain_MF_F#1.opus
tune=-26
</region>

<region>
hivel=127
key=E4
loop_end=165491
loop_mode=loop_continuous
loop_start=43288
loop_xfade=16925
lovel=0
lpc=P/xVQ0rkRsSJR4xECSUyxB4ShUM3oIjDTPiHQ9UR2MJ+TnBCS/eLwlry5r4aeo9CnhjBwglkmkKsGZ7Bh++ZwetrdkLHPgLDtR/vQmm3QcIxa41CVr8Iw/m00UICq+LB
lpc_rms=-36.50
offset=38
release_start=174786
release_xfade=9000
sample=Trombone_sustain_MF_E3.opus
</region>

<region>
hivel=127
key=E3
loop_end=188657
loop_mode=loop_continuous
loop_start=49347
loop_xfade=19294
lovel=0
lpc=Er8LQ7gm88OKhyNEwz/Ww4f0QUOlvh/DmhUMQ9xSj8Ln+xZCtG41wv+nGkLlf2I/DfeRwU9gc8HYqCFCIOvKwVrMdkGgS4bBH+HWwChBi0Gka+BB9PeJwrTKS0Lr+FnB
lpc_rms=-41.89
offset=703
release_start=201559
release_xfade=9000
sample=Trombone_sustain_MF_E2.opus
tune=-26
</region>

<region>
hikey=E2
hivel=127
lokey=C1
loop_end=188052
loop_mode=loop_continuous
loop_start=49189
loop_xfade=19232
lovel=0
lpc=8OgEQ2/tzsPhIt9DyqMww/FtKUKnCY7Ce2hLQg0wrMEszLdBotPOwCgDvMGpZrxBStlDQB0Wf8GNJchAzL8OP98DjUEJp+rBk4u9QPUCH0H9Bl5AOYFHwXn3zECsTlq/
lpc_rms=-48.07
offset=1760
pitch_keycenter=E2
release_start=195867
release_xfade=9000
sample=Trombone_sustain_MF_E1.opus
tune=-12
</region>

<region>
hivel=127
key=D4
loop_end=185730
loop_mode=loop_continuous
loop_start=48582
loop_xfade=18995
lovel=0
lpc=+vqIQ3YKhsSUkMpEEciKxNnCq0NDCnTDTL+jQ/Qt1cIhIzjCoXBEwoWfmULniiJCWgDIwvyuXEIVDKZAwq35weD0DEIaQubBNA5owaDBRkKUxabBqX6wwPblRMCHe5FA
lpc_rms=-35.32
release_start=196329
release_xfade=9000
sample=Trombone_sustain_MF_D3.opus
tune=-13
</region>

<region>
hivel=127
key=D3
loop_end=184331
loop_mode=loop_continuous
loop_start=48216
loop_xfade=18852
lovel=0
lpc=flg6Q7FNIMRe405E7ir0w+GyJ0Ok3tvCnebEQhGSgsJzKAtCUre8wRO9pEEf+xJBbRi8wQUoLcHKixhCZBvaweLjsEEf2BzCMPYoQommwMGUU6dAeCAIQXY/QcFeqp9A
lpc_rms=-41.89
offset=281
release_start=194891
release_xfade=9000
sample=Trombone_sustain_MF_D2.opus
tune=-12
</region>

<region>
hivel=127
key=D#4
loop_end=186003
loop_mode=loop_continuous
loop_start=48653
loop_xfade=19023
lovel=0
lpc=Qo0MQwKIDsRdVXVEIzxtxFeVF0SxbpvDXLgUQ9apoMJPHo5CQbR9wl9i8UGWelVABeA3wSPNhj/4wUNBIxzjwV3qWkKAbZDCnDAuQgrfs0GIXI/CffmXQvE6OcIhYk1B
lpc_rms=-36.94
offset=602
release_start=201438
release_xfade=9000
sample=Trombone_sustain_MF_D#3.opus
</region>

<region>
hivel=127
key=D#3
loop_end=185660
loop_mode=loop_continuous
loop_start=48564
loop_xfade=18988
lovel=0
lpc=739JQyosJMQXJUJElofBwyAk2EJ4Ze7CsicFQ8jKjMKYEQ9C0+BcwofQ70ERG5hB4cyBwapjVkHqjAzCtp65QRCl5EGFIifC8r1SQRZwUcE3sMJB5mI1wYKUqL+LL7c/
lpc_rms=-42.11
offset=963
release_start=198705
release_xfade=9000
sample=Trombone_sustain_MF_D#2.opus
tune=-35
</region>

<region>
hikey=D#5
hivel=127
lokey=C5
loop_end=183127
loop_mode=loop_continuous
loop_start=47901
loop_xfade=18729
lovel=0
lpc=TdMRQ7eH+8NJKyREf6y4w9fb2kKMs//CzaPlQo25HsGlxrdB5pevwtwJXEI8THQ/y11wQRADeMLTCqxCp1q0wkqfi0I5hw/AX7hYwkRtDkJKoojBnjhxQsJUmMIrVfRB
lpc_rms=-37.67
pitch_keycenter=C5
release_start=203726
release_xfade=9000
sample=Trombone_sustain_MF_C4.opus
tune=-14
</region>

<region>
hikey=C4
hivel=127
lokey=C4
loop_end=186010
loop_mode=loop_continuous
loop_start=48655
loop_xfade=19024
lovel=0
lpc=Hq1WQ8S9T8TLP5xEXG9dxEFhrUPHlnzDbfJ2Q+/2nsI92ZDAl7GNwXhc3UDbWqdAv4d9QOCqrT9kZJbB5bgAQv+aB8G9GwjC+Pi/Qd3jZEGFtaHBhy1qQR9fa8HsDddA
lpc_rms=-37.17
offset=817
release_start=198087
release_xfade=9000
sample=Trombone_sustain_MF_C3.opus
tune=-11
</region>

<region>
hivel=127
key=C3
loop_end=190847
loop_mode=loop_continuous
loop_start=49920
loop_xfade=19518
lovel=0
lpc=yyFdQ5Y9LcS7JjZEmWVsw6oYUkHnNNPCv4WTQvbPfUFPRiVA9ocHwvNhicBVPnxB8nSTQWtvdMFns7TAz+3LQLXU8EDNo27BANaCQFeLwz7QWjxBFqWywZpugEHONmzA
lpc_rms=-44.64
offset=164
release_start=197597
release_xfade=9000
sample=Trombone_sustain_MF_C2.opus
tune=-3
</region>

<region>
hivel=127
key=C#4
loop_end=187803
loop_mode=loop_continuous
loop_start=49124
loop_xfade=19207
lovel=0
lpc=MvkRQ+UWEcRlK25EUfNOxP5p3EOUJ2vDhkQ9Q1m24sJQ+xlCnsIkwr2AOkJh82pBFMV8wrEu80H/pHhB+ZKGwX7uhUAiGzZAzwxZwQosrUGXBrTBUra0QRAwh8FtkrFA
lpc_rms=-38.07
offset=605
release_start=204149
release_xfade=9000
sample=Trombone_sustain_MF_C#3.opus
tune=-11
</region>

<region>
hivel=127
key=C#3
loop_end=186034
loop_mode=loop_continuous
loop_start=48662
loop_xfade=19026
lovel=0
lpc=HkFwQ6phQcQr21lE7l24w2HukkIUjfDCYLTMQtVsrcHY5jdBt+Mgwna2rUElropBkNiGP4sEysGWNgvAWrydQWRDbjz3FEzBlUsfQQ4lBcH+OoBB9XuYwZf00UAOY2w/
lpc_rms=-42.57
offset=581
release_start=192354
release_xfade=9000
sample=Trombone_sustain_MF_C#2.opus
tune=-22
</region>

<region>
hivel=127
key=B4
loop_end=187846
loop_mode=loop_continuous
loop_start=49135
loop_xfade=19211
lovel=0
lpc=6XGEQ/CaYMR6Go9EYxsjxOUqh0Ny85LDwB8mQ5UHIkK/dAVCG48vw6GrL0OsKdfCvwMcQidrbMITNSdDjdlcw6LOSEOTTQLDWE0rQeOyWUJGO13C75O0Qqx1zMKWnidC
lpc_rms=-32.75
offset=147
release_start=198684
release_xfade=9000
sample=Trombone_sustain_MF_B3.opus
tune=-5
</region>

<region>
hivel=127
key=B3
loop_end=184634
loop_mode=loop_continuous
loop_start=48295
loop_xfade=18883
lovel=0
lpc=YcltQ/18aMQ2xbFEuj+BxDU31EOifZzDHjGZQ5Z39MKYszFCpkSxwmuvpELD953BlxtBwsb3PUKba5JAZJtAwTV7AUKfrJbCM5THQdz8A0KJDJRBxF+CwvfVDkLycJbA
lpc_rms=-36.27
offset=528
release_start=190127
release_xfade=9000
sample=Trombone_sustain_MF_B2.opus
tune=-8
</region>

<region>
hivel=127
key=B2
loop_end=194414
loop_mode=loop_continuous
loop_start=50854
loop_xfade=19883
lovel=0
lpc=R5M2Q03EC8Qaqw9EdcBSw8S3mkIgH9fCthf9QTcj1z/bFalB1Ka3wB7qLcGP6KW/wqd7QSZZGsFat+TA5lFvQWD4or8N/3TBs1kRQWuchL9fwvNAC/Y+weDw1ED8PpC/
lpc_rms=-46.07
offset=691
release_start=203743
release_xfade=9000
sample=Trombone_sustain_MF_B1.opus
tune=-30
</region>

<region>
hivel=127
key=A4
loop_end=184355
loop_mode=loop_continuous
loop_start=48222
loop_xfade=18854
lovel=0
lpc=pokiQ8V7GcSx/mpEjDExxBk+fUPPU5TCE4DcQt0N18L1wItCEp91wrKwGcC1h/9Cjkkcw1oNYkKnQRVC0tCIwpXCn0KIyafCPux5QvMqjcGqORDCVGaNQj5cXsIpBYtB
lpc_rms=-35.71
offset=249
release_start=201523
release_xfade=9000
sample=Trombone_sustain_MF_A3.opus
tune=-20
</region>

<region>
hivel=127
key=A3
loop_end=186524
loop_mode=loop_continuous
loop_start=48790
loop_xfade=19076
lovel=0
lpc=EFIoQxY2E8QAuUNEmV3zw7QvP0NNdiHDo/8oQzS64sLhMm5CrTcEwoThv8CVPHpCOwKFwup2k0E6mK9BrxcgwnUk70GYrgBBOmASwqtZ4EHgPFXBf3fFQbv358HwvSpB
lpc_rms=-39.15
offset=394
release_start=203211
release_xfade=9000
sample=Trombone_sustain_MF_A2.opus
tune=-18
</region>

<region>
hivel=127
key=A2
loop_end=191174
loop_mode=loop_continuous
loop_start=50006
loop_xfade=19552
lovel=0
lpc=HvpMQwhDJ8TJbj1EpxCdwwUuXkJQy5bCyXQ7Qv224MEKnl9B7+X4QQrYAcIiGoBBCe8RQSCgIsKGB+BB8U9DvrenrkB8NoHBwtxrQCNDnz8vpWNB9ctUwU4egb9MwzdA
lpc_rms=-43.18
offset=1235
release_start=210282
release_xfade=9000
sample=Trombone_sustain_MF_A1.opus
tune=-25
</region>

<region>
hivel=127
key=A#4
loop_end=184293
loop_mode=loop_continuous
loop_start=48206
loop_xfade=18848
lovel=0
lpc=78P9QsOm3sPTCyBE1ozmw8GbKEOa10vCzapSQn3Kb8JNjY9CgSVBwuJBkcJAiEZDMdNDw0bMvEJjB3NATvxawhByekL7zW3CeFeIQiewjsJoMm5CfC0bwg5WcUG/7S6/
lpc_rms=-34.89
offset=467
release_start=199340
release_xfade=9000
sample=Trombone_sustain_MF_A#3.opus
tune=-15
</region>

<region>
hivel=127
key=A#3
loop_end=185871
loop_mode=loop_continuous
loop_start=48619
loop_xfade=19009
lovel=0
lpc=zOpVQ3TSQMTepoJEqLcjxJgGkUNYWInDYD5XQ7tWqMKrfiVCv9XPwZNDPr+reMdB0I/VwTbV6MB7c91BjlbcwePrWULtH4nCwzCuQWyfzEFo8o7BADNLwSkdnUHy7+TA
lpc_rms=-37.62
offset=636
release_start=197653
release_xfade=9000
sample=Trombone_sustain_MF_A#2.opus
tune=-11
</region>

<region>
hivel=127
key=A#2
loop_end=184935
loop_mode=loop_continuous
loop_start=48374
loop_xfade=18914
lovel=0
lpc=PNlhQxobLcQEDTBENQNuw6TsmEKIrATDyw1IQo8x58FovYdCHFyCwcGbp8Hop9LAN39sQLHgokHpa/zAisFWwaZKlkFZSZ/BxGdgQXjHEz3+i4/ALfomP2z4qr+1ftU/
lpc_rms=-43.83
offset=2392
release_start=199675
release_xfade=9000
sample=Trombone_sustain_MF_A#1.opus
tune=-34
</region>
</group>

<group>
group_label=FF
lpc_hicc1=127
lpc_locc1=85

<region>
hivel=127
key=G4
loop_end=179652
loop_mode=loop_continuous
loop_start=46992
loop_xfade=18373
lovel=0
lpc=nAK1QLm+OMGDezVB0E0XwTvhAEG8173AyHVuQDx/B8Dgh94/cxmqv+2zKD9UD8A9d8ILvsDSGz+R9jS/+ojBvkldwD8f7uC/mwMuP5xgGD+6ufG+y8i1vpwJ2z4cCnA9
lpc_rms=-24.29
offset=342
release_start=192822
release_xfade=9000
sample=Trombone_sustain_FF_G3.opus
tune=-8
</region>

<region>
hivel=127
key=G3
loop_end=181218
loop_mode=loop_continuous
loop_start=47402
loop_xfade=18533
lovel=0
lpc=X6qSQGWYD8H01gJB67TPwLurp0CfcmbAkBUXQHZSv7/0BWw/4jK8vh7mjj27ApW8DV9KvvtG/T7V+/m+j6cbPbNOUD97D62/UcGtP2DZjr+Bw0E/ygD5vqvosT4V7S2+
lpc_rms=-31.13
offset=297
release_start=191948
release_xfade=9000
sample=Trombone_sustain_FF_G2.opus
tune=-10
</region>

<region>
hivel=127
key=G2
loop_end=187075
loop_mode=loop_continuous
loop_start=48934
loop_xfade=19132
lovel=0
lpc=65b+QFm0oMGlD8JBPVaywdGwnkFq24XBTfVQQf/4HMELZ+VAeWOfwEZQaUBdXzPANQECQPj9vr/6Lbk/izH3v1yHO0BWFVfA5hA8QFxEDsBgFeM/MXSGvyIWTT7s70I9
lpc_rms=-35.52
offset=509
release_start=199633
release_xfade=9000
sample=Trombone_sustain_FF_G1.opus
tune=-19
</region>

<region>
hivel=127
key=G#4
loop_end=171073
loop_mode=loop_continuous
loop_start=44748
loop_xfade=17496
lovel=0
lpc=QyP5QGjwkcFLcp1BWCV9wVqaQ0H8SxTBTYXoQBAWsMCv/o5ARLVvwB5YTEDIvjXAlzgrQJLFJsDHK1xA70aWwG9QiUD35wHAvDqkPi7UIz7T8MI9g3K2vQ10Hb7dbPo9
lpc_rms=-24.94
offset=749
release_start=182147
release_xfade=9000
sample=Trombone_sustain_FF_G#3.opus
tune=-15
</region>

<region>
hivel=127
key=G#3
loop_end=182936
loop_mode=loop_continuous
loop_start=47851
loop_xfade=18709
lovel=0
lpc=O8/aQHTZaMGXaFxBn/4swZ0UEkFa29LAy/+HQF3FNcAcCxJAYxvUv6eQhD/Stgq/hwuyvRvEPz+WL3C/pu5UPkdPjD8oxOW/0BD3P14F5L9oOO4/zouov6/MRT4fX5A9
lpc_rms=-28.15
offset=91
release_start=191781
release_xfade=9000
sample=Trombone_sustain_FF_G#2.opus
tune=-29
</region>

<region>
hivel=127
key=G#2
loop_end=180222
loop_mode=loop_continuous
loop_start=47141
loop_xfade=18432
lovel=0
lpc=UifuQJArlsFjT7hBEpiswRD3mUE6+ILBYvZXQUA6LsFpaAxBcxTSwCKgl0DoIV/ATBAPQOLdwr/dqaQ/2APav5+vM0DPSEvAJn44QICUIcDmFRBAAFDYv7ZWMj9VKQq+
lpc_rms=-36.26
offset=26
release_start=191246
release_xfade=9000
sample=Trombone_sustain_FF_G#1.opus
tune=-21
</region>

<region>
hivel=127
key=F4
loop_end=178295
loop_mode=loop_continuous
loop_start=46637
loop_xfade=18235
lovel=0
lpc=CFk5QUW+5MHhDARCc2fMwQzlj0FdIVHBUjgzQUoyGcFa0vFAgKG0wI2iZkBRCbC+xqN8v3TClD8CTZq/MYBtP8x/kj/8bDHAHvdmQD8iXcBLQ2VAP0IxwKjdkT8iosE+
lpc_rms=-26.76
offset=201
release_start=195900
release_xfade=9000
sample=Trombone_sustain_FF_F3.opus
tune=-24
</region>

<region>
hivel=127
key=F3
loop_end=187190
loop_mode=loop_continuous
loop_start=48964
loop_xfade=19144
lovel=0
lpc=cndOQVBqFsIfoE9C23JKwkBVLkJ39A3CHpvXQWAolsHQ1FBB3jEcwRTc7kD3sbTAd6yGQDTOQ8AiE+I/mEHgv2HfcEAt1a7AF77KQJa7ysBNpqNA1FAhwPLojj6xfD0+
lpc_rms=-31.83
offset=352
release_start=202041
release_xfade=9000
sample=Trombone_sustain_FF_F2.opus
tune=-18
</region>

<region>
hivel=127
key=F2
loop_end=189535
loop_mode=loop_continuous
loop_start=49577
loop_xfade=19384
lovel=0
lpc=tN0ZQTlY0cH4YQpC1nkJwj1s+UFUkM3BxI6aQRuMYsGrvy5BRMkNwR653kC3WqXAyXVwQO4cJcDxaPQ/rUgMwE8dT0A8i37Au46BQA9EXsCpsTFAxBfyvzqsVT9M8kG+
lpc_rms=-37.85
offset=654
release_start=198997
release_xfade=9000
sample=Trombone_sustain_FF_F1.opus
tune=+4
</region>

<region>
hivel=127
key=F#4
loop_end=185785
loop_mode=loop_continuous
loop_start=48596
loop_xfade=19001
lovel=0
lpc=rU/tQA1VkMF1BKRBmtOFwViMU0GlOSbBKRP0QN/znsCibFlAfr8HwONYV72vuQNA9YwgwFq+4D8mE7m/tEyeP54BFbrSFEW/NrCnPkyH4T1yFpe+8EK+PLz4Mj//ArW+
lpc_rms=-28.64
release_start=207589
release_xfade=9000
sample=Trombone_sustain_FF_F#3.opus
tune=-21
</region>

<region>
hivel=127
key=F#3
loop_end=186383
loop_mode=loop_continuous
loop_start=48753
loop_xfade=19062
lovel=0
lpc=ZniTQHDyD8FuswBBLcPIwMqAokD6vFHAhwYQQFmZ5r9dGLI/L3Nvv8y3Ez/Js5q+jHVSvRQTlD6eMZq+Y5MIvjynaj/zl7m/bOe0P8YceL+CuBc/mRmMvsOhLr2iPSI+
lpc_rms=-30.67
release_start=194929
release_xfade=9000
sample=Trombone_sustain_FF_F#2.opus
tune=-6
</region>

<region>
hivel=127
key=F#2
loop_end=185277
loop_mode=loop_continuous
loop_start=48463
loop_xfade=18949
lovel=0
lpc=DAgBQRRyqsFEQttBVtPUwTaDwkHGgajBGEmJQUwvXMGE/DFBLMsNwQXvzUBDnYvAlsdIQCP+HMAtEQ1AptA8wHYoikCQkZzApICNQDIfbcBtlEtAjHEcwJmArD+B2c2+
lpc_rms=-38.33
offset=28
release_start=195422
release_xfade=9000
sample=Trombone_sustain_FF_F#1.opus
tune=-19
</region>

<region>
hivel=127
key=E4
loop_end=182995
loop_mode=loop_continuous
loop_start=47866
loop_xfade=18715
lovel=0
lpc=VazpQFNObcExQWBBVF8rwcFKDUFlq8vAF2GMQP8hSMDkzDFAEzv6v8+Rpz8NDzi/0ZIPP0wiYr+VHj4/wWZyv0NQJ0D+djrA9To/QMuzPsBkmhhA1u2Fv8R29j7x70W9
lpc_rms=-24.89
offset=507
release_start=193937
release_xfade=9000
sample=Trombone_sustain_FF_E3.opus
tune=-14
</region>

<region>
hivel=127
key=E3
loop_end=185012
loop_mode=loop_continuous
loop_start=48394
loop_xfade=18922
lovel=0
lpc=ApYiQaQpz8ERa/VB+TbZwdELu0FvA5nBhixpQfddIsFvCNZAJ4ZzwPUAuD9mDVk9q8xyvsvJbz1yBs69ZYISv3//xj8xWoi/vZAvP9Snt7+WKw9Ax1vEv9vDXD5iclI+
lpc_rms=-30.56
offset=407
release_start=194453
release_xfade=9000
sample=Trombone_sustain_FF_E2.opus
tune=-15
</region>

<region>
hikey=E2
hivel=127
lokey=C1
loop_end=169499
loop_mode=loop_continuous
loop_start=44336
loop_xfade=17335
lovel=0
lpc=DSorQceY7cGPOBxCmtsVwmk3BELPGtfBOmqdQTXzWcFl9RRByU+8wHDBYkCz7A7APaCaP1Ofyb67um0+KRDWv0kkgED2R53AtDqPQJl8dcAXFFtAPnIhwBhgbT9DF4i9
lpc_rms=-38.39
offset=694
release_start=176471
release_xfade=9000
pitch_keycenter=E2
sample=Trombone_sustain_FF_E1.opus
tune=-23
</region>

<region>
hivel=127
key=D4
loop_end=186494
loop_mode=loop_continuous
loop_start=48782
loop_xfade=19073
lovel=0
lpc=edUTQRL9v8Hcfu5BE1XawQxRuUEH+JTB6clrQchcO8GhshBBA9nXwN1xlUBrbvW/5btbvrfc4z7MjZA+JWWyvlcRIT/EHbC/LFU0QN2EbcAIZ1pAikspwJZPtj8pZoe+
lpc_rms=-28.74
offset=181
release_start=198595
release_xfade=9000
sample=Trombone_sustain_FF_D3.opus
tune=+5
</region>

<region>
hivel=127
key=D3
loop_end=183121
loop_mode=loop_continuous
loop_start=47900
loop_xfade=18728
lovel=0
lpc=at69QB4ST8FddFRB4fowwRyZEUEhLdzAl9SbQALlV8DZPxxABLHiv7Aojj8awqa+ZqEQvqthrD5bJnG+rWIYv3atqT9OCqO/raeUP/o6mb/yloI/YLAgv5fwzD1fVSM+
lpc_rms=-32.17
offset=283
release_start=195227
release_xfade=9000
sample=Trombone_sustain_FF_D2.opus
tune=-14
</region>

<region>
hivel=127
key=D#4
loop_end=183308
loop_mode=loop_continuous
loop_start=47948
loop_xfade=18747
lovel=0
lpc=8E6rQCC/IsECQg9BPgfVwGRkukA8dY7ABEBCQDdLnb8PzfE+SQWMPmS4GL+5lQM/xN3Lvg4HHj8WqRK/2SwRP3PO4j5Q8IO/O8FsP295hr8FQtE/QPSvv7GHcz/VuaK+
lpc_rms=-25.78
offset=1288
release_start=196785
release_xfade=9000
sample=Trombone_sustain_FF_D#3.opus
tune=-17
</region>

<region>
hivel=127
key=D#3
loop_end=180768
loop_mode=loop_continuous
loop_start=47284
loop_xfade=18487
lovel=0
lpc=u0GpQKIHMcHKbCtBYOoKweSg90D24MTApJuQQMTiSMDfShBAl+W3v2+SCD9l/mY9iHGJvbNCcz5OduK+CnXAOx5iDj/k+yC/XDkdP3PDDr/WpgQ/B5SIvrtKdD3atyC9
lpc_rms=-32.39
offset=455
release_start=196096
release_xfade=9000
sample=Trombone_sustain_FF_D#2.opus
tune=-19
</region>

<region>
hikey=D#5
hivel=127
lokey=C5
loop_end=179199
loop_mode=loop_continuous
loop_start=46874
loop_xfade=18327
lovel=0
lpc=INaVQFPbDMGkwe9Axfq1wBrkoUCRXW3AxxIgQIMS5L/U9LQ/rl2Cv+NeVj+kVQO/55Zlvme+hz8o7o2/LmXqPsu1wj567vO+iQN9PcQULL5OkTQ/ejkKv+cs/D6vuVi+
lpc_rms=-23.58
offset=626
pitch_keycenter=C5
release_start=194519
release_xfade=9000
sample=Trombone_sustain_FF_C4.opus
tune=-18
</region>

<region>
hikey=C4
hivel=127
lokey=C4
loop_end=180398
loop_mode=loop_continuous
loop_start=47187
loop_xfade=18450
lovel=0
lpc=0r2TQLtbEsFYwgZBefbcwC96xkBoI4/A9xguQEoJCMClm+s/l1bBv+9Lvz9MGY6/eZEnP4tdsb7TlMc93k9NvluLED9ASgO/CzaaPmxub74sraq8EggePp+cLD2lLze9
lpc_rms=-30.15
offset=440
release_start=191206
release_xfade=9000
sample=Trombone_sustain_FF_C3.opus
tune=-7
</region>

<region>
hivel=127
key=C3
loop_end=184015
loop_mode=loop_continuous
loop_start=48133
loop_xfade=18820
lovel=0
lpc=dA6nQEY2JcF5GhRBC+ruwNEV1EAq0Z/Al35iQOmjHsCr3e0/ee+Uv53nIz/VruC+1T1/PrF/BL5rn54+dFFVv2t3pT9RTJW/dxNyPz63br/EdHY/vE03vwR91z7CW3e+
lpc_rms=-32.36
offset=631
release_start=194454
release_xfade=9000
sample=Trombone_sustain_FF_C2.opus
tune=-3
</region>

<region>
hivel=127
key=C#4
loop_end=181719
loop_mode=loop_continuous
loop_start=47533
loop_xfade=18585
lovel=0
lpc=GZA5Qe2K+8GJGR1C+KcEwjHnvkHH2YDBlvZAQVeaLcEMCyhBCAgWwcoJvEDc8ii/enw0wF7RMkAsFQO+qd0VwAuwkUBmHLnAnletQId6Z8AwJCc/a8vNPyyrqL8/6qo+
lpc_rms=-28.32
offset=252
release_start=188970
release_xfade=9000
sample=Trombone_sustain_FF_C#3.opus
tune=+5
</region>

<region>
hivel=127
key=C#3
loop_end=184959
loop_mode=loop_continuous
loop_start=48380
loop_xfade=18916
lovel=0
lpc=Q3KcQK0MHcExXRZBZh7+wBpS2kBpRKTA4aNuQCXaKcDH9ABAAXLDv85+gT+E+uC+NW+MPkUHjL4Yy74+btFGv+eLlD9806W/2gSmP2CzkL/8WYM/eXAav9TKLz4H99K9
lpc_rms=-32.60
release_start=191808
release_xfade=9000
sample=Trombone_sustain_FF_C#2.opus
</region>

<region>
hivel=127
key=B4
loop_end=185127
loop_mode=loop_continuous
loop_start=48424
loop_xfade=18933
lovel=0
lpc=+Ih7QMmW1cCaNrdAsZ+WwI2kaEBIqAHAyUZQP8BZyb51XAc/2JJcv9YoXD8SPbi+myd7PA5/Sz6wcYG+zQa4PRjEhD7RJdC+6wu+Psw5NzsiNkS+GIgHP5iH8r5JmqQ+
lpc_rms=-25.50
offset=2015
release_start=192017
release_xfade=9000
sample=Trombone_sustain_FF_B3.opus
tune=-9
</region>

<region>
hivel=127
key=B3
loop_end=181496
loop_mode=loop_continuous
loop_start=47474
loop_xfade=18562
lovel=0
lpc=enyTQEOEDsEg+QBBJA/DwPEDkkBEHTvA0e/gPzEAub+eLZw/IHQQv+ELCz6sbCc9DPv5PVXF7L2bR7k+CRxXv5i0jT/6II6/FidzP+9+yr5atSC9xV/dPUDxTz1wSb68
lpc_rms=-28.50
offset=302
release_start=187098
release_xfade=9000
sample=Trombone_sustain_FF_B2.opus
tune=+1
</region>

<region>
hivel=127
key=B2
loop_end=187490
loop_mode=loop_continuous
loop_start=49042
loop_xfade=19175
lovel=0
lpc=2w2mQN6BMsHlrjdBKqYcwdt1C0Grad3A+J2kQMfBccBCoy1AGvnnvzgBiT9ewjy/ppwjP6eRZr4hAj0+unUuvz4lkj835pC/nCqMP88rar+RI1M/RqcXv5UKAD6E/ac9
lpc_rms=-35.68
offset=664
release_start=194312
release_xfade=9000
sample=Trombone_sustain_FF_B1.opus
tune=-15
</region>

<region>
hivel=127
key=A4
loop_end=181960
loop_mode=loop_continuous
loop_start=47596
loop_xfade=18609
lovel=0
lpc=3Nq4QHllQMGVH0BBFToZwXezCEFGdtPAWIuZQH+wYMBl6zFAwe//v0bi4T/6FYy/nHbSPQm/tj9ha+6/97+kP67xSr8nlzs/KLJrvtNGvz6i762+RKQwPsjhsT2Osge+
lpc_rms=-24.78
offset=1003
release_start=192767
release_xfade=9000
sample=Trombone_sustain_FF_A3.opus
tune=-3
</region>

<region>
hivel=127
key=A3
loop_end=189276
loop_mode=loop_continuous
loop_start=49509
loop_xfade=19358
lovel=0
lpc=ji/NQG5JccGkSoNBa1pKwQNNEEFkBtbAeQitQGRgjcD2hWBANAY7wG3h3z90Bq6+zg26vuHPQbyW9Rw/66orv8u7jj8hw7K/p5BLPxakMb9CD3E/qbQ3v59VwD4pQvK9
lpc_rms=-30.95
offset=390
release_start=195660
release_xfade=9000
sample=Trombone_sustain_FF_A2.opus
tune=-8
</region>

<region>
hivel=127
key=A2
loop_end=180281
loop_mode=loop_continuous
loop_start=47157
loop_xfade=18438
lovel=0
lpc=gbelQPR5NMEUfT9B+34owbt5FEGP8uLAXr6jQIAac8BkGSlAzf/MvyeXUz/Iape+d3EsPRo2l72R3og+ZUM4v9Y/uD+FO9C/uk3HP7k7tL+9KJ4/lwlXv90qoT7KixQ9
lpc_rms=-35.05
offset=827
release_start=192974
release_xfade=9000
sample=Trombone_sustain_FF_A1.opus
tune=-13
</region>

<region>
hivel=127
key=A#4
loop_end=186721
loop_mode=loop_continuous
loop_start=48841
loop_xfade=19096
lovel=0
lpc=gZxvQH13yMBs9JpA8O9YwPtuEUCsYp6/SD8vPwFH0b6dZ8M+eGSKvrW3uT7RUxO+oPFCPr+iZ72Cqpo+aP1pvx6pvT9fZ8O/dmFsP8q46b6xgJA+LQyHO4Io+b2wE+A9
lpc_rms=-25.47
offset=789
release_start=203668
release_xfade=9000
sample=Trombone_sustain_FF_A#3.opus
tune=-9
</region>

<region>
hivel=127
key=A#3
loop_end=179744
loop_mode=loop_continuous
loop_start=47016
loop_xfade=18383
lovel=0
lpc=juCfQGQZFsG4vAJBPonFwHAmnUAh3UXAJbnWPwwhkL/2Y3c/HWo+vguEIr4+vGY+8UrKvkfRNz/VfzC/1DhCPtO7Jj99l1W/68RJP0XJBL8UJMM+7Leqvph1/z5qPn++
lpc_rms=-25.40
offset=762
release_start=192800
release_xfade=9000
sample=Trombone_sustain_FF_A#2.opus
tune=-5
</region>

<region>
hivel=127
key=A#2
loop_end=184033
loop_mode=loop_continuous
loop_start=48138
loop_xfade=18821
lovel=0
lpc=MGS/QHpGWcGnSWhBO6BCwafYJkEdKwbBxB7HQOBIi8AhoklAP5oJwJOXrz9OAlK/Io+KPotI+b0FghU/9Tqdv+2n7j+4MvW/Gzm5P5oBlb+PV4g/FolMv/BIqT5Knlm9
lpc_rms=-33.13
offset=333
release_start=194440
release_xfade=9000
sample=Trombone_sustain_FF_A#1.opus
tune=-24
</region>
</group>